<svg width="33" height="33" viewBox="0 0 33 33" fill="none" xmlns="http://www.w3.org/2000/svg">
<path d="M16.4871 2.45889C8.51748 2.45567 2.0625 8.90743 2.0625 16.8706C2.0625 23.1677 6.10049 28.5205 11.724 30.4863C12.4813 30.6765 12.3653 30.1383 12.3653 29.7709V27.2733C7.99219 27.7857 7.81494 24.8918 7.52168 24.4084C6.92871 23.3965 5.52686 23.1387 5.9458 22.6553C6.9416 22.1429 7.95674 22.7842 9.13301 24.5212C9.98379 25.7813 11.6435 25.5686 12.4846 25.3591C12.6683 24.6018 13.0614 23.925 13.6028 23.3997C9.07178 22.5876 7.1833 19.8226 7.1833 16.5355C7.1833 14.9402 7.70859 13.4739 8.73984 12.2912C8.08242 10.3415 8.80107 8.67217 8.89775 8.42403C10.7701 8.25645 12.7166 9.76466 12.8681 9.88389C13.9315 9.59708 15.1465 9.44561 16.5064 9.44561C17.8729 9.44561 19.091 9.60352 20.1642 9.89356C20.5283 9.61641 22.333 8.32091 24.0732 8.47882C24.1667 8.72696 24.8692 10.3576 24.2505 12.2816C25.2946 13.4675 25.8264 14.9467 25.8264 16.5451C25.8264 19.8387 23.925 22.6069 19.3811 23.4062C19.7703 23.7889 20.0793 24.2454 20.2901 24.7489C20.5009 25.2524 20.6093 25.7929 20.6089 26.3388V29.9643C20.6347 30.2543 20.6089 30.5411 21.0923 30.5411C26.7996 28.6172 30.9085 23.2257 30.9085 16.8738C30.9085 8.90743 24.4503 2.45889 16.4871 2.45889Z" fill="white" fill-opacity="0.85"/>
</svg>
